HIERARCHY
ROOT Hips
{
 OFFSET 0.000000 0.000000 0.000000
 CHANNELS 6 Xposition Yposition Zposition Yrotation Xrotation Zrotation
 JOINT Chest
 {
  OFFSET 0.000000 9.588913 -0.003946
  CHANNELS 3 Yrotation Xrotation Zrotation
  JOINT Chest2
  {
   OFFSET 0.000000 9.541882 0.008053
   CHANNELS 3 Yrotation Xrotation Zrotation
   JOINT Chest3
   {
    OFFSET 0.000000 9.501360 0.000000
    CHANNELS 3 Yrotation Xrotation Zrotation
    JOINT Chest4
    {
     OFFSET 0.000000 9.491660 0.000000
     CHANNELS 3 Yrotation Xrotation Zrotation
     JOINT Neck
     {
      OFFSET 0.000000 14.331917 0.000000
      CHANNELS 3 Yrotation Xrotation Zrotation
      JOINT Head
      {
       OFFSET 0.000000 8.884799 0.017034
       CHANNELS 3 Yrotation Xrotation Zrotation
       End Site
       {
        OFFSET 0.000000 16.896195 0.008993
       }
      }
     }
     JOINT RightCollar
     {
      OFFSET -2.923010 9.499495 0.000000
      CHANNELS 3 Yrotation Xrotation Zrotation
      JOINT RightShoulder
      {
       OFFSET -13.795216 0.000000 0.000000
       CHANNELS 3 Yrotation Xrotation Zrotation
       JOINT RightElbow
       {
        OFFSET -30.272209 0.000000 0.000000
        CHANNELS 3 Yrotation Xrotation Zrotation
        JOINT RightWrist
        {
         OFFSET -24.478199 0.000000 0.000000
         CHANNELS 3 Yrotation Xrotation Zrotation
         End Site
         {
          OFFSET -18.090752 0.000000 0.000000
         }
        }
       }
      }
     }
     JOINT LeftCollar
     {
      OFFSET 2.923010 9.499495 0.000000
      CHANNELS 3 Yrotation Xrotation Zrotation
      JOINT LeftShoulder
      {
       OFFSET 13.795216 0.000000 0.000000
       CHANNELS 3 Yrotation Xrotation Zrotation
       JOINT LeftElbow
       {
        OFFSET 30.272209 0.000000 0.000000
        CHANNELS 3 Yrotation Xrotation Zrotation
        JOINT LeftWrist
        {
         OFFSET 24.478199 0.000000 0.000000
         CHANNELS 3 Yrotation Xrotation Zrotation
         End Site
         {
          OFFSET 18.090752 0.000000 0.000000
         }
        }
       }
      }
     }
    }
   }
  }
 }
 JOINT RightHip
 {
  OFFSET -7.826875 0.019532 0.001973
  CHANNELS 3 Yrotation Xrotation Zrotation
  JOINT RightKnee
  {
   OFFSET 0.000000 -40.546152 -0.001885
   CHANNELS 3 Yrotation Xrotation Zrotation
   JOINT RightAnkle
   {
    OFFSET 0.000000 -39.417092 -0.003189
    CHANNELS 3 Yrotation Xrotation Zrotation
    JOINT RightToe
    {
     OFFSET 0.000000 -7.579396 17.243563
     CHANNELS 3 Yrotation Xrotation Zrotation
     End Site
     {
      OFFSET 0.000000 -1.500329 6.694466
     }
    }
   }
  }
 }
 JOINT LeftHip
 {
  OFFSET 7.826875 0.019532 0.001973
  CHANNELS 3 Yrotation Xrotation Zrotation
  JOINT LeftKnee
  {
   OFFSET 0.000000 -40.546152 -0.001885
   CHANNELS 3 Yrotation Xrotation Zrotation
   JOINT LeftAnkle
   {
    OFFSET 0.000000 -39.417092 -0.003189
    CHANNELS 3 Yrotation Xrotation Zrotation
    JOINT LeftToe
    {
     OFFSET 0.000000 -7.579396 17.243563
     CHANNELS 3 Yrotation Xrotation Zrotation
     End Site
     {
      OFFSET 0.000000 -1.500329 6.694466
     }
    }
   }
  }
 }
}
MOTION
Frames: 11
Frame Time: 0.008333
0.000000 87.345680 0.000000 0.000000 -5.767889 0.000000 0.000000 11.653876 0.000000 0.000000 -5.885988 0.000000 0.000000 -0.000000 0.000000 0.000000 -0.000000 0.000000 0.000000 12.528808 0.000000 0.000000 0.711711 0.000000 0.000000 -0.000000 0.000000 0.000000 -0.000000 0.000000 2.309063 -0.000000 0.000000 -2.309063 -0.000000 -0.000000 0.000000 -0.000000 0.000000 0.000000 0.000000 0.000000 -2.309063 0.000000 0.000000 2.309063 -0.000000 0.000000 0.000000 8.520374 0.000000 0.000000 1.905768 0.000000 -0.000000 -4.658254 0.000000 0.000000 -0.000000 0.000000 0.000000 8.520374 0.000000 0.000000 1.905768 0.000000 -0.000000 -4.658254 0.000000 0.000000 -0.000000 0.000000
-11.236574 49.366202 -22.059100 54.430510 -34.146056 -4.937396 0.252112 14.540705 2.918268 0.067901 8.326794 1.372829 0.116780 10.408050 1.722192 0.067901 8.326795 1.372829 -2.426479 13.295667 -2.775450 -1.919645 -11.718858 -2.366181 -3.926956 -0.387303 -3.818157 5.021575 -7.659027 83.298334 71.757507 21.241831 17.858332 -7.909856 4.886892 -6.447763 -2.430071 -1.385093 1.157621 -1.298139 -8.111895 -84.882361 -67.068061 7.133990 -32.171628 6.505110 11.694747 33.653136 -0.487403 -49.500904 -12.005263 -158.943902 75.100322 -155.050522 -7.081836 -17.521927 5.053077 -0.229197 0.550157 -0.092357 9.154071 -54.353020 -2.440851 138.420819 69.170217 152.608906 0.927656 -17.579516 -3.951662 -0.025129 -0.595684 -0.016251
-11.235341 49.367206 -22.059413 54.427995 -34.152289 -4.930456 0.259344 14.547436 2.911079 0.072257 8.328715 1.371388 0.122213 10.410435 1.720490 0.072257 8.328715 1.371388 -2.409594 13.310872 -2.779322 -1.900844 -11.703301 -2.373898 -3.924532 -0.393139 -3.813753 4.998228 -7.652039 83.304244 71.747677 21.239649 17.860390 -7.883635 4.894746 -6.474338 -2.432884 -1.381430 1.153877 -1.199164 -8.108812 -84.933383 -66.955434 7.112938 -32.217218 6.224275 11.670964 33.709549 -0.482327 -49.493149 -12.011569 -158.939913 75.100614 -155.049048 -7.084237 -17.527461 5.050636 -0.226912 0.552795 -0.090747 9.192369 -54.337988 -2.471836 138.383073 69.172038 152.584469 0.932960 -17.591694 -3.948170 -0.032770 -0.589080 -0.018176
-11.234215 49.368288 -22.059346 54.424206 -34.158759 -4.925187 0.266574 14.554747 2.905422 0.076466 8.329705 1.370061 0.127462 10.411656 1.718926 0.076466 8.329705 1.370061 -2.389867 13.328262 -2.781836 -1.879322 -11.685537 -2.380777 -3.919844 -0.397750 -3.810238 4.972939 -7.646547 83.310481 71.735307 21.238371 17.865421 -7.862741 4.905540 -6.500046 -2.438369 -1.374143 1.151914 -1.097684 -8.101300 -84.980849 -66.829861 7.070015 -32.269377 5.929688 11.642858 33.763773 -0.473386 -49.484588 -12.018737 -158.944420 75.101161 -155.052393 -7.086228 -17.532288 5.048461 -0.225107 0.554832 -0.089762 9.226804 -54.326408 -2.497849 138.363462 69.172628 152.576126 0.944578 -17.598742 -3.945605 -0.043681 -0.588004 -0.019969
-11.233510 49.369316 -22.058768 54.417846 -34.164153 -4.922537 0.276227 14.561727 2.905143 0.080943 8.330056 1.368588 0.133041 10.412079 1.717183 0.080943 8.330056 1.368589 -2.368237 13.347695 -2.783012 -1.856076 -11.665701 -2.386635 -3.914056 -0.401518 -3.810345 4.944172 -7.643531 83.323602 71.718390 21.238818 17.870728 -7.844451 4.919728 -6.525739 -2.444749 -1.366870 1.150065 -0.997401 -8.086124 -85.023840 -66.703154 7.017412 -32.327166 5.630652 11.608269 33.814635 -0.463114 -49.476838 -12.020404 -158.947689 75.102108 -155.051744 -7.092233 -17.536062 5.047082 -0.221078 0.557399 -0.088479 9.252906 -54.319942 -2.512824 138.364369 69.172480 152.586746 0.957233 -17.601368 -3.946096 -0.053263 -0.591834 -0.020419
-11.233175 49.370279 -22.057773 54.408626 -34.168431 -4.921694 0.289119 14.567138 2.909478 0.085910 8.330239 1.367199 0.139234 10.412290 1.715557 0.085910 8.330239 1.367199 -2.345934 13.369000 -2.783833 -1.832197 -11.643944 -2.392257 -3.908459 -0.406206 -3.814799 4.913851 -7.639555 83.344600 71.698318 21.242335 17.877354 -7.827084 4.935882 -6.556483 -2.449617 -1.361563 1.150820 -0.902700 -8.061415 -85.065159 -66.583158 6.961326 -32.389547 5.330902 11.566554 33.863389 -0.453510 -49.471826 -12.013703 -158.943547 75.102167 -155.043579 -7.104895 -17.535846 5.046342 -0.213166 0.558295 -0.085583 9.273678 -54.316938 -2.517603 138.378242 69.172870 152.609907 0.965168 -17.602419 -3.946587 -0.058409 -0.597377 -0.020715
-11.232742 49.371357 -22.056593 54.399390 -34.173426 -4.921598 0.303758 14.571892 2.913877 0.090882 8.330125 1.366133 0.145440 10.412130 1.714336 0.090882 8.330125 1.366133 -2.323118 13.392522 -2.783934 -1.807936 -11.619915 -2.397220 -3.902513 -0.412812 -3.820601 4.878986 -7.630290 83.368406 71.681329 21.249981 17.894672 -7.811029 4.951491 -6.594760 -2.454879 -1.356470 1.156257 -0.812640 -8.029962 -85.107160 -66.468919 6.902618 -32.452953 5.030141 11.527833 33.912185 -0.447275 -49.468154 -12.005324 -158.933969 75.100044 -155.032900 -7.111808 -17.531184 5.046624 -0.208794 0.554867 -0.084172 9.293371 -54.314420 -2.519582 138.397087 69.172588 152.638740 0.968356 -17.602443 -3.945540 -0.059683 -0.604120 -0.021536
-11.232112 49.372449 -22.055731 54.392689 -34.177860 -4.921168 0.316335 14.575713 2.914811 0.095842 8.330308 1.365022 0.151632 10.412340 1.713058 0.095842 8.330308 1.365022 -2.298485 13.417600 -2.782000 -1.782201 -11.594325 -2.400407 -3.895882 -0.423736 -3.825380 4.840675 -7.616134 83.390822 71.670173 21.262559 17.921977 -7.795454 4.967361 -6.635561 -2.461470 -1.351348 1.166456 -0.728313 -7.998854 -85.149181 -66.358660 6.845430 -32.511694 4.729002 11.498185 33.960919 -0.444601 -49.464773 -12.001117 -158.924076 75.097702 -155.023851 -7.109831 -17.527392 5.046011 -0.208585 0.551011 -0.084333 9.316017 -54.312074 -2.526705 138.409953 69.172520 152.662312 0.970384 -17.601043 -3.942740 -0.060460 -0.610466 -0.022865
-11.231383 49.373443 -22.055511 54.388539 -34.180402 -4.919558 0.325314 14.577207 2.913835 0.100580 8.331641 1.363940 0.157551 10.413990 1.711813 0.100580 8.331641 1.363940 -2.271723 13.443822 -2.779760 -1.754288 -11.567579 -2.403733 -3.892116 -0.438239 -3.830321 4.815860 -7.601010 83.406449 71.660203 21.280225 17.942309 -7.781194 4.982241 -6.675288 -2.467139 -1.347504 1.176933 -0.656030 -7.970937 -85.185507 -66.256249 6.795449 -32.558036 4.428129 11.469147 34.005791 -0.443381 -49.461628 -12.000971 -158.914545 75.097525 -155.015267 -7.107008 -17.526710 5.043900 -0.206720 0.550319 -0.084106 9.343988 -54.309050 -2.541923 138.411768 69.175707 152.676270 0.972877 -17.599825 -3.939292 -0.061685 -0.613269 -0.024178
-11.230727 49.374412 -22.055747 54.384619 -34.181731 -4.917385 0.333353 14.577559 2.913886 0.104157 8.333727 1.363374 0.162029 10.416583 1.711189 0.104157 8.333727 1.363374 -2.242149 13.471477 -2.779334 -1.723021 -11.539354 -2.409604 -3.891567 -0.452287 -3.836308 4.815762 -7.588685 83.411976 71.647471 21.303838 17.944966 -7.769015 4.994421 -6.713353 -2.470055 -1.346028 1.182285 -0.595581 -7.943694 -85.211149 -66.165350 6.755743 -32.592565 4.131658 11.434163 34.043054 -0.444323 -49.458971 -12.000092 -158.903965 75.100328 -155.006420 -7.107211 -17.526312 5.042062 -0.203250 0.551749 -0.084052 9.375443 -54.305236 -2.559933 138.408972 69.181007 152.685461 0.976631 -17.601583 -3.934816 -0.064836 -0.612110 -0.025402
-11.230186 49.375417 -22.056299 54.380963 -34.182648 -4.915793 0.340417 14.578329 2.914659 0.105581 8.335756 1.363356 0.163822 10.419114 1.711202 0.105581 8.335756 1.363356 -2.207269 13.501607 -2.780740 -1.685758 -11.508598 -2.418580 -3.885804 -0.463896 -3.843116 4.829203 -7.579998 83.410169 71.635134 21.337450 17.936747 -7.759609 5.005074 -6.745708 -2.469291 -1.346532 1.181492 -0.548116 -7.916263 -85.225349 -66.081037 6.720979 -32.618029 3.846542 11.395870 34.078425 -0.448799 -49.457187 -11.996820 -158.896590 75.105105 -155.001326 -7.111176 -17.524249 5.039248 -0.200129 0.552912 -0.083509 9.409275 -54.301728 -2.577778 138.401991 69.185183 152.689122 0.979649 -17.606248 -3.927277 -0.070571 -0.608980 -0.027003
